<?xml version="1.0" encoding="utf-8"?>
<svg xmlns="http://www.w3.org/2000/svg" height="256" width="256" viewBox="0 0 256 256">
  <g>
    <path id="path1" transform="rotate(0,128,128) translate(63.4741998314857,59) scale(4.3125,4.3125)  " fill="#FFFFFF" d="M29.594012,19.705994C29.754992,19.708984,29.894002,19.822998,29.925008,19.986023L29.517993,26.625C29.39699,27.320007,28.996018,26.616028,28.996018,26.616028L28.125989,25.164978C25.228972,29.294006 20.439948,32 15.009931,32 8.78392,32 3.3898832,28.448975 0.73487266,23.263977 0.47287794,22.752991 0.12586098,22.252991 0.030859328,21.68103 -0.29412384,19.765991 2.0368805,19.416992 2.8358955,20.320984 3.1678974,20.695984 3.5608742,21.343018 3.8408742,21.85199 5.9649074,25.848999 10.169913,28.572998 15.009931,28.572998 19.272952,28.572998 23.03197,26.455994 25.320983,23.223999L23.741965,22.93103C23.741965,22.93103,22.826983,22.809021,23.454976,22.424011L29.524005,19.710999C29.547015,19.70697,29.571002,19.705017,29.594012,19.705994z M13.591925,5.3299866L16.45995,5.3299866 16.45995,7.6889954C18.023953,7.7940063,19.076966,8.2380066,19.749974,8.5740051L20.044957,8.7200012 19.131959,11.825989 18.711943,11.61499C18.04794,11.283997 17.01995,10.768005 15.432937,10.768005 14.167947,10.768005 13.410925,11.285004 13.410925,12.152008 13.410925,12.92099 14.13093,13.459015 16.259936,14.275024 19.302951,15.41803 20.603951,16.940002 20.603951,19.367981 20.603951,21.77301 18.938966,23.638 16.331959,24.190979L16.331959,26.877014 13.436926,26.877014 13.436926,24.392029C11.95291,24.289001,10.442924,23.856995,9.502918,23.255981L9.2559068,23.098022 10.163932,19.90802 10.604912,20.172974C11.265926,20.567993 12.630922,21.234009 14.364939,21.234009 15.77794,21.234009 16.687947,20.609985 16.687947,19.64801 16.687947,18.877991 16.257952,18.208984 14.155924,17.453003 11.852935,16.609985 9.4989202,15.370972 9.4989202,12.535004 9.4989202,10.199005 11.057917,8.4339905 13.591925,7.8670044z M14.912945,0C21.139964,0 26.534978,3.5499878 29.189011,8.7369995 29.451007,9.2479858 29.797993,9.7479858 29.892995,10.319 30.215995,12.237 27.888987,12.582001 27.090003,11.678986 26.755986,11.303986 26.362979,10.653992 26.08298,10.14801 23.958977,6.151001 19.754948,3.427002 14.912945,3.427002 10.650933,3.427002 6.8919131,5.5429993 4.6038782,8.7739868L6.1818883,9.0690002C6.1818883,9.0690002,7.0979077,9.1919861,6.4699142,9.5750122L0.40088688,12.290985C0.21286698,12.322998,0.033880575,12.197998,0.00086054773,12.011993L0.40787541,5.3779907C0.52787085,4.6799927,0.92887362,5.3850098,0.92887338,5.3850098L1.7968891,6.8359985C4.6958892,2.7059937,9.4859197,0,14.912945,0z" />
  </g>
</svg>

